<svg width="656" height="255" viewBox="0 0 656 255" fill="none" xmlns="http://www.w3.org/2000/svg">
<g clip-path="url(#clip0_26_41)">
<path d="M26.146 72.0171C32.8867 67.8665 39.5498 63.5831 46.3822 59.5894C70.9431 45.2328 95.5891 31.0215 120.121 16.6159C123.045 14.8989 125.199 14.7113 128.252 16.4922C159.288 34.5984 190.427 52.5285 221.72 71.0988C221.194 72.3358 220.572 73.1312 219.762 73.6059C203.91 82.8985 188.031 92.1467 172.166 101.418C156.446 110.606 140.735 119.809 124.711 128.851C122.247 126.717 120.093 124.737 118.136 122.49C147.177 105.425 176.021 88.6271 204.905 71.8054C199.793 66.8222 195.346 66.593 189.263 70.2453C162.158 86.5191 134.694 102.195 107.011 117.966C103.819 116.568 100.975 115.291 98.1601 113.669C106.599 108.247 115.009 103.168 123.458 98.0652C118.352 93.0198 113.846 92.5054 108.228 96.5664C102.202 100.922 95.4134 104.224 88.649 107.847C85.8838 105.925 83.4274 104.143 81.2447 102.126C110.637 84.9178 139.757 67.9431 168.744 51.0451C163.552 45.4621 158.878 46.069 152.807 49.6943C125.825 65.8053 98.5002 81.3421 70.9249 97.0393C67.7497 95.6669 64.9488 94.3417 62.1945 92.6778C83.0001 80.1615 103.759 67.984 124.465 55.8374C119.325 50.6981 114.734 50.6979 108.543 54.5261C90.3083 65.8012 71.5556 76.2381 52.6878 86.8635C49.8819 85.0277 47.3938 83.3314 45.1137 81.3821C74.4123 64.1891 103.503 47.2492 132.668 30.2664C127.485 24.999 123.102 24.8031 117.332 28.567C106.615 35.5581 95.2869 41.6165 84.1869 48.0174C67.9109 57.403 51.6117 66.7484 34.947 76.0621C31.763 74.6813 28.9545 73.3492 26.146 72.0171ZM153.414 80.9126C164.414 74.4984 175.413 68.0842 187.461 61.0583C182.879 59.5466 180.833 54.4892 175.794 57.4224C159.44 66.9427 143.076 76.4469 126.728 85.978C126.076 86.358 125.547 86.9488 125.048 87.3685C129.916 92.6238 134.75 92.9194 140.359 88.6105C144.145 85.7011 148.6 83.6608 153.414 80.9126ZM129.855 42.3588C128.512 43.2351 127.169 44.1115 125.826 44.9878C125.77 45.529 125.714 46.0703 125.657 46.6115C129.165 47.4575 133.147 49.7714 136.078 48.8269C141.291 47.1469 145.868 43.4936 150.794 40.6179C143.336 34.4731 143.337 34.4744 135.634 38.9987C133.922 40.0044 132.202 40.9972 129.855 42.3588Z" fill="#DF5026"/>
<path d="M125.02 129.005C140.735 119.809 156.446 110.606 172.166 101.419C188.031 92.1469 203.91 82.8987 219.762 73.6061C220.572 73.1314 221.194 72.336 221.951 71.3462C222.4 71.6481 223.146 72.2916 223.15 72.9395C223.205 82.0951 223.337 91.2586 222.966 100.401C222.902 101.983 220.907 103.983 219.298 104.931C198.945 116.916 178.495 128.735 158.08 140.615C150.935 144.772 150.831 145.059 152.443 154.14C175.797 140.591 198.989 127.136 222.773 113.338C222.927 115.505 223.094 116.766 223.094 118.027C223.082 139.004 222.983 159.981 223.091 180.957C223.108 184.134 222.29 186.045 219.412 187.7C188.127 205.699 156.924 223.842 125.341 241.509C124.989 238.049 124.994 235.024 125.329 231.889C154.011 215.285 182.375 198.811 210.682 182.241C212.07 181.428 213.924 179.781 213.942 178.5C214.163 162.217 214.087 145.929 214.087 128.739C190.189 142.593 166.921 156.081 142.836 170.043C142.836 160.295 143.01 151.972 142.754 143.663C142.646 140.153 143.991 138.341 146.936 136.652C167.445 124.891 187.857 112.962 208.286 101.062C215.112 97.0849 215.23 96.7322 213.678 88.0507C212.592 88.511 211.508 88.8396 210.555 89.3927C186.074 103.601 161.571 117.772 137.213 132.19C135.543 133.178 134.093 136.013 134.043 138.026C133.731 150.684 133.843 163.352 133.818 176.017C133.812 178.92 133.817 181.822 133.817 185.677C157.995 171.648 181.195 158.187 205.116 144.307C205.116 154.721 205.246 164.031 204.967 173.329C204.928 174.637 203.119 176.269 201.738 177.098C192.602 182.582 183.38 187.924 174.146 193.241C157.852 202.624 141.53 211.956 125.148 220.845C125.032 217.299 124.987 214.218 125.3 211.078C147.208 198.518 168.763 186.025 190.305 173.51C196.946 169.652 197.475 168.234 195.306 160.366C171.83 173.93 148.412 187.46 124.985 200.522C124.99 176.371 125.005 152.688 125.02 129.005Z" fill="#BF4522"/>
<path d="M124.941 211.137C124.987 214.218 125.032 217.299 125.004 221.261C124.954 225.427 124.977 228.713 125 231.999C124.994 235.023 124.989 238.048 124.987 241.526C123.629 241.505 122.15 241.234 120.923 240.527C90.2591 222.864 59.6359 205.131 28.9536 187.5C26.5457 186.117 25.3432 184.692 25.3653 181.714C25.6344 145.453 25.7631 109.192 26.0372 72.4736C28.9546 73.3491 31.7631 74.6812 35.0432 76.3668C38.6452 78.3586 41.7756 79.9969 44.906 81.6352C47.394 83.3314 49.882 85.0276 52.6707 87.3315C52.9261 112.905 52.8952 137.871 52.8275 162.837C52.8052 171.055 53.551 172.091 61.9571 174.39C61.9571 158.39 61.9571 142.497 61.9571 125.796C70.9007 130.975 79.2515 135.689 87.4198 140.7C88.4125 141.309 88.8176 143.518 88.8255 144.99C88.8974 158.304 88.817 171.619 88.7878 184.934C88.7729 191.706 90.2767 193.416 98.1315 194.912C98.1315 167.855 98.1315 140.934 98.1315 114.013C100.975 115.291 103.819 116.568 107.141 118.258C111.059 120.033 114.499 121.395 117.939 122.757C120.093 124.737 122.247 126.717 124.711 128.851C125.005 152.688 124.99 176.371 124.908 200.974C124.875 204.975 124.908 208.056 124.941 211.137ZM41.2865 184.166C65.8666 198.377 90.4466 212.588 115.736 227.21C115.736 224.982 115.734 223.705 115.737 222.427C115.803 195.429 115.874 168.43 115.933 141.431C115.951 132.902 115.936 132.902 106.795 129.357C106.795 156.596 106.795 183.616 106.795 211.637C98.3517 206.773 90.8274 202.297 83.1518 198.098C80.6132 196.709 79.6924 195.09 79.7317 192.205C79.9111 179.041 79.8565 165.873 79.8953 152.707C79.9158 145.763 78.3524 143.933 70.6722 142.402C70.6722 158.242 70.6722 173.995 70.6722 190.792C62.4704 186.063 55.122 181.64 47.5813 177.573C44.7011 176.019 43.6877 174.236 43.715 170.944C43.9127 147.113 43.8932 123.28 43.9336 99.4473C43.9477 91.1571 43.8565 91.0505 35.1625 88.0779C35.0804 89.7651 34.9386 91.3584 34.935 92.952C34.874 119.784 34.972 146.618 34.6574 173.447C34.5977 178.535 35.5993 182.098 41.2865 184.166Z" fill="#F15F34"/>
<path d="M316.013 128.136C315.619 132.545 312.587 131.496 310.082 131.919C304.389 132.881 302.036 130.706 300.796 125.016C298.327 113.685 294.939 102.554 291.538 89.8801C288.472 101.22 285.744 111.161 283.1 121.123C280.14 132.274 280.172 132.283 268.008 131.649C262.843 112.44 257.639 93.0826 252.34 73.3707C256.316 73.3707 259.894 73.3707 263.804 73.3707C267.295 87.4008 270.807 101.515 274.644 116.938C278.64 101.606 282.317 87.5015 286.023 73.2812C289.685 73.2812 293.141 73.2812 297.103 73.2812C300.719 87.2467 304.369 101.34 308.404 116.923C312.245 101.492 315.727 87.5027 319.257 73.3204C322.922 73.3204 326.532 73.3204 330.727 73.3204C325.803 91.6098 320.941 109.668 316.013 128.136Z" fill="#F8F8F8"/>
<path d="M427.36 104.864C433.312 118.419 427.447 129.795 413.173 131.322C403.819 132.323 394.271 131.511 384.416 131.511C384.416 112.359 384.416 93.0256 384.416 73.445C393.889 73.445 403.501 72.8827 413.02 73.5851C425.341 74.4943 432.265 88.1835 423.25 100.152C424.546 101.623 425.841 103.096 427.36 104.864ZM411.897 122.082C417.274 120.392 419.391 117.649 418.967 112.921C418.562 108.409 415.357 105.436 410.169 105.227C405.243 105.028 400.303 105.184 395.241 105.184C395.241 111.114 395.241 116.621 395.241 122.168C400.731 122.168 405.868 122.168 411.897 122.082ZM395.117 82.8553C395.117 87.1052 395.117 91.355 395.117 95.9272C400.027 95.9272 404.65 96.0425 409.266 95.8948C413.882 95.747 416.761 92.9207 416.552 88.8347C416.323 84.3453 413.5 82.3801 409.321 82.2612C404.841 82.1338 400.354 82.266 395.117 82.8553Z" fill="#F9F9F9"/>
<path d="M483.578 72.4847C499.724 71.1736 512.595 79.029 516.996 92.5357C521.464 106.249 516.214 120.956 504.255 128.224C493.546 134.734 479.497 134.201 469.427 126.904C459.495 119.707 455.117 107.154 458.129 94.5122C460.904 82.8652 470.151 74.7566 483.578 72.4847ZM468.147 105.937C468.362 106.737 468.56 107.543 468.794 108.337C471.693 118.208 480.273 124.014 490.265 122.871C500.244 121.73 507.354 113.72 507.784 103.135C508.198 92.9288 501.814 84.2886 492.087 82.402C477.125 79.5003 466.413 91.419 468.147 105.937Z" fill="#F9F9F9"/>
<path d="M369.904 73.0933C372.181 73.0933 373.972 73.0933 375.949 73.0933C375.949 76.4536 375.949 79.3614 375.949 82.6694C366.632 82.6694 357.545 82.6694 348.243 82.6694C348.243 87.8343 348.243 92.5989 348.243 97.7285C357.001 97.7285 365.61 97.7285 374.469 97.7285C374.469 100.837 374.469 103.59 374.469 106.744C365.929 106.744 357.346 106.744 348.391 106.744C348.391 111.988 348.391 116.859 348.391 122.153C357.442 122.153 366.518 122.153 375.887 122.153C375.887 125.467 375.887 128.376 375.887 131.857C369.447 131.857 363.001 131.857 356.555 131.857C350.272 131.857 343.99 131.857 337.459 131.857C337.459 112.129 337.459 92.898 337.459 73.0933C348.216 73.0933 358.816 73.0933 369.904 73.0933Z" fill="#F5F5F5"/>
<path d="M639.036 82.893C639.704 84.2488 640.223 85.2871 640.926 86.6937C638.073 88.0194 635.3 89.3076 632.309 90.6973C629.286 84.8299 624.959 81.375 618.364 81.6869C614.44 81.8724 610.959 83.0808 610.097 87.413C609.172 92.0593 612.039 94.5233 616.032 95.8786C619.486 97.051 623.019 97.9855 626.489 99.1128C636.98 102.521 641.763 108.542 640.965 117.249C640.194 125.672 633.305 131.524 622.838 132.651C611.583 133.862 601.504 127.598 597.239 116.446C599.882 115.259 602.552 114.059 605.555 112.71C606.491 114.061 607.358 115.418 608.328 116.695C612.18 121.765 617.269 123.981 623.598 123.055C626.958 122.564 629.635 121.076 630.21 117.343C630.815 113.415 628.906 110.973 625.327 109.73C620.784 108.151 616.175 106.762 611.655 105.122C603.079 102.011 598.544 95.6398 599.267 87.9531C600.033 79.811 605.464 74.1646 614.518 72.6395C624.598 70.9416 632.849 74.152 639.036 82.893Z" fill="#F7F7F7"/>
<path d="M545.209 81.7081C540.732 82.1004 537.591 83.772 537.141 88.164C536.683 92.6369 539.73 94.6961 543.462 95.9385C547.874 97.4068 552.395 98.5798 556.723 100.257C565.059 103.488 568.811 109.42 568.044 117.556C567.371 124.686 561.614 130.479 553.621 132.068C540.367 134.703 528.618 128.552 524.501 116.389C527.232 115.186 530.012 113.961 533.004 112.643C536.688 119.584 541.737 123.882 549.782 123.18C553.802 122.829 557.011 121.254 557.525 116.857C558.019 112.637 555.243 110.53 551.649 109.323C547.241 107.844 542.749 106.598 538.394 104.981C530.06 101.886 525.924 95.797 526.559 87.9561C527.21 79.9062 532.411 74.509 541.249 72.7121C552.988 70.3256 563.869 76.0609 567.822 86.9213C565.142 88.1276 562.444 89.3422 559.552 90.6438C556.511 84.99 552.276 81.3874 545.209 81.7081Z" fill="#F8F8F8"/>
<path d="M439.146 112.999C439.146 99.5693 439.146 86.6395 439.146 73.4043C442.745 73.4043 445.99 73.4043 449.616 73.4043C449.616 92.5706 449.616 111.904 449.616 131.546C446.455 131.546 443.204 131.546 439.146 131.546C439.146 125.635 439.146 119.567 439.146 112.999Z" fill="#F6F6F6"/>
<path d="M588.388 96.0001C588.388 108.119 588.388 119.738 588.388 131.593C584.809 131.593 581.708 131.593 578.214 131.593C578.214 112.28 578.214 92.9273 578.214 73.3652C581.507 73.3652 584.743 73.3652 588.388 73.3652C588.388 80.9075 588.388 88.2038 588.388 96.0001Z" fill="#FDFDFD"/>
<path d="M474.714 163.671C477.427 160.917 477.808 156.204 482.984 155.751C482.984 164.932 483.023 173.711 482.926 182.49C482.916 183.379 482.087 184.259 481.638 185.143C481.029 184.251 479.914 183.371 479.892 182.465C479.737 176.204 479.81 169.937 478.935 163.276C476.055 167.378 473.174 171.479 469.866 176.189C466.694 171.638 463.762 167.431 460.017 162.058C460.017 169.79 460.069 176.179 459.955 182.565C459.94 183.437 459.093 184.295 458.631 185.159C458.042 184.415 456.952 183.678 456.942 182.927C456.823 173.991 456.866 165.053 456.866 154.49C463.348 159.037 465.316 165.521 470.039 170.372C471.545 168.211 473.024 166.089 474.714 163.671Z" fill="#F5F5F5"/>
<path d="M343.61 156.379C351.397 154.179 356.402 156.426 358.316 163.639C356.697 162.718 355.773 162.225 354.882 161.678C353.094 160.579 351.29 158.509 349.553 158.57C347.323 158.648 344.163 159.868 343.18 161.603C341.599 164.393 343.362 167.009 346.544 168.142C349.039 169.03 352.035 169.278 353.941 170.857C356.118 172.66 358.305 175.468 358.729 178.121C359.299 181.688 356.527 184.106 352.991 185.227C348.331 186.704 342.86 185.182 340.04 181.273C339.328 180.285 339.386 178.742 339.09 177.454C340.167 178.046 341.525 178.399 342.269 179.274C344.927 182.399 348.192 183.809 351.985 182.273C353.528 181.649 355.356 179.622 355.452 178.129C355.549 176.636 353.974 174.515 352.538 173.57C350.668 172.34 347.886 172.454 346.09 171.163C343.589 169.365 340.407 167.078 339.822 164.482C339.313 162.224 342.007 159.246 343.61 156.379Z" fill="#E5E5E5"/>
<path d="M521.256 157.561C522.601 159.174 523.671 160.549 524.742 161.924C524.494 162.302 524.246 162.68 523.999 163.059C523.048 162.686 522.003 162.458 521.167 161.91C519.689 160.943 518.485 159.422 516.904 158.779C513.858 157.542 510.636 157.883 509.258 161.182C507.767 164.753 509.685 167.204 513.261 168.387C515.774 169.219 518.4 169.847 520.742 171.029C526.232 173.799 526.635 180.567 521.669 184.02C516.692 187.48 508.369 185.639 505.537 180.333C505.111 179.534 505.423 178.342 505.394 177.332C506.284 177.751 507.516 177.929 508.007 178.627C510.496 182.173 513.831 183.837 517.874 182.354C519.52 181.75 521.373 179.577 521.603 177.907C521.79 176.541 520.011 174.41 518.555 173.441C516.833 172.293 514.511 172.064 512.47 171.372C506.857 169.47 504.497 165.689 505.899 160.91C507.157 156.621 512.15 154.337 517.345 155.771C518.604 156.119 519.772 156.796 521.256 157.561Z" fill="#EAEAEA"/>
<path d="M269.283 168.915C270.61 169.29 271.567 169.569 272.508 169.892C278.246 171.858 280.419 175.062 279.217 179.757C278.117 184.05 273.037 187.079 268.029 185.452C264.529 184.315 261.511 181.698 258.277 179.743C258.761 178.895 259.244 178.048 259.728 177.201C260.753 177.797 262.071 178.162 262.75 179.029C265.288 182.267 268.512 183.761 272.359 182.37C273.911 181.809 275.925 179.79 275.942 178.411C275.964 176.713 274.479 174.506 272.99 173.409C271.349 172.2 268.949 172.047 266.907 171.354C261.422 169.492 258.821 165.321 260.33 160.888C261.802 156.56 266.878 154.037 271.838 155.882C274.673 156.937 277.042 159.244 279.621 160.988C279.371 161.518 279.121 162.048 278.871 162.578C277.928 162.578 276.928 162.766 276.063 162.505C275.573 162.357 275.408 161.123 274.919 160.978C272.084 160.14 269.209 159.072 266.32 158.981C265.317 158.95 263.473 161.419 263.337 162.871C262.993 166.543 265.92 167.876 269.283 168.915Z" fill="#EAEAEA"/>
<path d="M433.689 169.002C436.006 171.394 434.907 172.05 432.456 172.029C428.484 171.994 424.512 172.02 420.283 172.02C420.283 175.362 420.283 178.447 420.283 181.731C425.223 183.517 431.165 180.397 435.818 184.801C429.752 184.801 423.686 184.801 417.238 184.801C417.238 175.571 417.238 166.02 417.238 156.162C423.304 156.162 429.518 156.162 435.834 156.162C434.861 158.563 434.861 158.563 420.382 158.956C420.382 162.134 420.382 165.333 420.382 168.982C424.645 168.982 428.931 168.982 433.689 169.002Z" fill="#F4F4F4"/>
<path d="M318.259 160.079C312.835 166.924 309.31 173.974 310.749 182.714C310.868 183.438 309.79 184.36 309.268 185.19C308.692 184.58 307.527 183.844 307.627 183.378C309.994 172.335 302.973 164.669 296.825 155.306C304.695 157.203 304.678 164.686 309.213 167.72C313.255 164.267 313.946 157.583 320.429 156.407C319.777 157.525 319.126 158.644 318.259 160.079Z" fill="#E9E9E9"/>
<path d="M385.953 175.969C385.953 170.033 385.953 164.592 385.953 159.389C382.854 158.838 380.242 158.373 377.629 157.908C377.751 157.331 377.874 156.754 377.997 156.177C384.209 156.177 390.421 156.177 396.642 156.177C396.28 158.467 396.28 158.467 389.047 159.266C389.047 166.818 389.099 174.422 388.988 182.023C388.973 183.071 388.155 184.108 387.708 185.15C387.123 184.081 386.209 183.065 386.028 181.932C385.744 180.151 385.953 178.291 385.953 175.969Z" fill="#F7F7F7"/>
<path d="M70.925 97.0395C74.2673 98.8545 77.2351 100.622 80.5871 102.375C83.4274 104.143 85.8838 105.925 88.649 107.847C88.9578 111.146 88.9578 114.307 88.9578 118.147C85.9867 116.571 83.4273 115.214 80.148 113.476C80.148 117.844 80.148 121.67 80.148 125.694C70.9377 122.308 71.0908 122.304 70.834 113.701C70.7639 111.353 70.0919 107.585 68.6331 106.964C62.4259 104.319 60.9605 99.9055 62.0754 93.4619C64.9489 94.3419 67.7498 95.6671 70.925 97.0395Z" fill="#F25F34"/>
<path d="M411.451 122.125C405.868 122.168 400.731 122.168 395.241 122.168C395.241 116.621 395.241 111.114 395.241 105.184C400.303 105.184 405.243 105.028 410.169 105.227C415.357 105.436 418.562 108.408 418.967 112.921C419.391 117.649 417.274 120.392 411.451 122.125Z" fill="#040404"/>
<path d="M395.493 82.5701C400.354 82.266 404.841 82.1337 409.321 82.2612C413.5 82.3801 416.323 84.3453 416.552 88.8347C416.761 92.9207 413.882 95.7469 409.265 95.8947C404.65 96.0425 400.027 95.9272 395.117 95.9272C395.117 91.355 395.117 87.1051 395.493 82.5701Z" fill="#090909"/>
</g>
<defs>
<clipPath id="clip0_26_41">
<rect width="656" height="255" fill="white"/>
</clipPath>
</defs>
</svg>
