<svg width="200" height="244" viewBox="0 0 624 761" fill="none" xmlns="http://www.w3.org/2000/svg">
    <g clip-path="url(#clip0_10_4)">
        <path
            d="M623.532 207.767C623.996 208.213 624.203 208.391 624.705 208.285C625 240.354 625 272.708 625 305.531C622.228 309.743 618.15 311.776 614.274 314.01C572.568 338.04 531.05 362.394 489.404 386.528C462.169 402.312 435.052 418.3 407.701 433.884C403.359 436.358 400.858 439.351 401.345 444.623C401.68 448.257 401.388 451.95 401.41 455.616C401.451 462.29 402.046 462.664 407.672 459.417C421.954 451.176 436.184 442.848 450.447 434.575C485.456 414.268 520.43 393.901 555.415 373.553C575.138 362.08 594.897 350.668 614.612 339.181C617.459 337.523 620.271 333.922 624.734 336.752C625 402.688 625 468.375 625 534.531C623.515 536.525 624.035 538.455 624.022 540.234C623.969 547.232 623.688 554.25 624.105 561.223C624.406 566.275 622.427 569.19 618.172 571.575C596.671 583.625 575.494 596.242 554.183 608.624C528.84 623.348 503.517 638.107 478.166 652.819C441.581 674.05 405.037 695.352 368.449 716.579C353.036 725.521 337.648 734.509 322.197 743.384C319.49 744.939 316.629 748.468 312.783 744.396C310.596 733.595 311.686 723.111 311.961 712.229C315.768 707.126 321.139 704.698 326.11 701.811C368.741 677.053 411.324 652.213 453.957 627.458C498.174 601.783 542.334 576.01 586.621 550.456C590.632 548.143 592.643 545.295 592.635 540.493C592.55 493.336 592.593 446.178 592.561 399.021C592.556 392.999 591.311 392.26 586.241 395.224C549.001 416.995 511.691 438.646 474.384 460.3C441.687 479.278 409.144 498.525 376.243 517.151C370.081 520.639 367.703 519.324 367.664 512.199C367.506 482.706 367.564 453.212 367.605 423.718C367.611 419.681 368.961 416.968 372.64 414.819C402.555 397.351 432.542 380.006 462.478 362.573C490.399 346.312 518.321 330.054 546.282 313.861C559.685 306.098 572.964 298.118 586.479 290.552C590.721 288.177 592.94 285.142 592.625 280.156C592.374 276.173 592.662 272.159 592.55 268.162C592.411 263.195 591.164 262.445 586.81 264.932C575.675 271.291 564.653 277.847 553.553 284.27C504.973 312.381 456.531 340.73 407.962 368.861C389.227 379.713 370.607 390.766 351.768 401.438C347.184 404.035 345.322 407.395 345.337 412.723C345.474 459.547 345.417 506.371 345.427 553.195C345.428 559.69 346.192 560.162 351.799 556.915C385.526 537.385 419.168 517.709 452.868 498.134C488.44 477.471 523.997 456.782 559.544 436.079C560.84 435.324 562.18 434.625 563.597 434.135C567.467 432.797 569.641 434.158 570.205 438.283C570.499 440.433 570.412 442.609 570.413 444.774C570.422 467.103 570.366 489.432 570.449 511.761C570.474 518.276 569.041 524.679 569.252 531.188C569.37 534.818 566.81 536.481 564.202 538.002C551.971 545.134 539.782 552.337 527.521 559.414C497.229 576.897 467.051 594.575 436.79 612.109C398.025 634.57 359.383 657.242 320.553 679.59C318.058 681.025 315.622 682.693 312.595 679.825C310.821 669.002 311.643 658.493 311.907 647.583C313.675 643.642 317.166 642.116 320.211 640.345C351.571 622.102 382.899 603.805 414.277 585.594C441.481 569.805 468.681 554.009 495.846 538.153C507.488 531.358 519.124 524.552 530.853 517.912C534.76 515.701 536.847 512.991 536.631 508.386C536.42 503.901 536.672 499.394 536.564 494.9C536.456 490.345 535.496 489.771 531.517 492.071C520.421 498.484 509.355 504.95 498.272 511.386C461.857 532.535 425.445 553.687 389.011 574.804C366.115 588.075 343.293 601.476 320.362 614.688C317.672 616.238 315.043 617.856 312.253 614.203C311.479 610.843 311.56 607.836 311.56 604.839C311.54 535.339 311.542 465.839 311.557 396.339C311.557 393.674 311.512 391.004 311.995 387.93C312.546 385.377 313.998 384.281 315.848 383.211C373.362 349.964 430.736 316.476 488.187 283.122C530.663 258.461 573.085 233.708 615.608 209.129C617.848 207.835 620.132 205.196 623.532 207.767Z"
            fill="white" />
        <path fill-rule="evenodd" clip-rule="evenodd"
            d="M297.674 736.614C302.84 739.793 307.984 742.959 313.922 744.342C313.958 732.884 314.011 721.881 314.391 710.501C315.386 709.172 315.969 708.172 316.067 706.991C316.711 699.285 316.568 691.576 316.159 683.865C316.074 682.26 315.22 681.11 314.038 679.637C314.026 668.068 314.044 656.973 314.391 645.501C315.385 644.173 315.968 643.173 316.067 641.993C316.712 634.29 316.567 626.583 316.161 618.875C316.076 617.272 315.227 616.117 314.056 614.644C314.066 582.442 314.08 550.325 314.094 518.229C314.113 474.057 314.133 429.926 314.142 385.673C313.106 383.15 311.116 382.057 309.16 380.983C308.664 380.711 308.17 380.439 307.695 380.147C305.392 378.728 303.038 377.394 300.671 376.053C296.401 373.634 292.087 371.19 287.948 368.177C280.337 363.549 272.801 359.256 265.114 354.876C263.455 353.931 261.788 352.982 260.113 352.024C257.649 351.065 255.669 349.96 253.685 348.853L253.525 348.764C251.437 347.599 249.376 346.383 247.316 345.168C243.218 342.751 239.122 340.335 234.814 338.32C234.562 338.202 234.304 338.074 234.043 337.943C231.861 336.855 229.376 335.615 227.172 339.066C226.488 342.536 226.52 345.759 226.551 348.93C226.558 349.601 226.565 350.27 226.564 350.938C226.563 358.724 226.561 366.51 226.559 374.295C226.543 437.15 226.527 500.005 226.606 562.86C226.611 566.617 226.315 570.351 226.019 574.083C225.696 578.146 225.374 582.208 225.44 586.299C225.51 590.664 223.74 591.459 219.645 589.463C218.557 588.932 217.523 588.297 216.489 587.662C215.248 586.899 214.007 586.137 212.674 585.557C205.703 582.522 203.18 577.444 203.316 569.731C203.64 551.363 203.539 532.991 203.437 514.619C203.286 487.188 203.134 459.756 204.4 432.336C204.642 427.091 202.935 423.706 198.213 421.02C189.146 415.861 180.114 410.641 171.081 405.42C164.397 401.557 157.712 397.693 151.013 393.855C147.977 392.115 144.964 390.331 141.951 388.548C135.36 384.647 128.768 380.746 121.926 377.295C116.217 374.414 114.031 375.776 113.673 382.243C113.42 386.801 113.488 391.37 113.555 395.934C113.559 396.201 113.563 396.468 113.567 396.735C113.862 416.918 113.452 437.094 113.042 457.271C112.62 478.057 112.198 498.843 112.546 519.636L112.548 519.781C112.567 520.899 112.587 522.026 112.339 523.122C111.873 525.183 110.505 526.018 108.641 525.081L108.48 525C103.031 522.26 97.5613 519.509 92.923 515.458C91.2021 513.955 90.6837 511.805 90.5464 509.582C90.4242 507.604 90.4342 505.623 90.4443 503.643C90.4469 503.124 90.4495 502.606 90.4498 502.087C90.457 486.923 90.4491 471.758 90.4412 456.594C90.4084 393.637 90.3756 330.68 91.4234 267.728C91.4305 267.304 91.4398 266.88 91.4491 266.455C91.5199 263.217 91.5919 259.93 90.6865 256.402C89.1047 253.689 86.742 252.391 84.4306 251.121C83.8348 250.794 83.2424 250.468 82.6676 250.121C80.0538 248.541 77.4035 247.022 74.7378 245.495C70.1833 242.886 65.5838 240.252 61.0448 237.239C54.7442 233.238 48.4037 229.636 42.0038 226C39.1137 224.358 36.2115 222.709 33.2954 221.014C31.2255 220.32 29.564 219.599 28.0128 218.66C21.8265 214.914 15.5744 211.286 9.21654 207.835C7.24712 206.766 5.35378 206.007 3.09562 207.5C3.05733 209.129 3.04616 210.655 3.03538 212.128C3.02348 213.755 3.01206 215.315 2.96512 216.875C2.96197 216.98 2.96069 217.088 2.95938 217.199C2.94625 218.309 2.93048 219.642 1 219.469C1 335.292 1 450.646 1.23764 565.656C7.97899 569.096 14.489 572.871 20.9985 576.646L21.3271 576.836C25.7391 579.395 30.1504 581.954 34.5617 584.513C46.3267 591.339 58.0916 598.165 69.8686 604.97C76.6344 608.879 83.4097 612.772 90.1851 616.664C97.2284 620.711 104.272 624.758 111.304 628.823C119.23 633.405 127.147 638.003 135.063 642.6C143.317 647.393 151.57 652.187 159.834 656.962C166.648 660.899 173.473 664.816 180.298 668.732C187.297 672.749 194.296 676.765 201.282 680.803C210.483 686.122 219.672 691.461 228.86 696.801C235.841 700.857 242.822 704.914 249.809 708.961C253.5 711.099 257.185 713.249 260.87 715.399C271.091 721.362 281.311 727.325 291.667 733.045C293.703 734.169 295.69 735.393 297.674 736.614ZM258 387.529V526V648.45C257.319 648.079 256.722 647.76 256.181 647.47C255.162 646.925 254.342 646.486 253.54 646.019C249.139 643.452 244.74 640.881 240.341 638.31C233.354 634.225 226.366 630.141 219.367 626.077C215.745 623.974 212.133 621.851 208.521 619.728C198.104 613.605 187.687 607.482 177.018 601.834C172.322 599.349 171.937 596.397 171.945 592.065C171.998 563.07 172.003 534.075 172.008 505.079C172.012 485.918 172.015 466.757 172.032 447.596C172.035 445.008 172.031 442.557 169.474 441.112C163.706 437.85 157.924 434.613 152.035 431.316C149.733 430.027 147.415 428.729 145.075 427.417C144.933 444.104 144.972 460.756 145.011 477.396C145.093 512.276 145.174 547.103 143.587 582.084C142.979 581.815 142.39 581.573 141.82 581.339C140.649 580.859 139.557 580.411 138.546 579.824C130.35 575.068 122.161 570.302 113.972 565.536C97.1186 555.727 80.2649 545.918 63.3585 536.2C60.1504 534.356 58.8972 532.426 58.9031 528.614C59.0104 458.443 59.0064 388.272 59.0025 318.101C59.0017 304.79 59.001 291.478 59.001 278.167C59.001 277.801 59.0031 277.434 59.0052 277.068C59.0107 276.101 59.0162 275.134 58.9833 274.168C58.9798 274.066 58.9791 273.963 58.9785 273.862C58.9744 273.189 58.9704 272.536 58.1436 272.063C51.5419 268.284 44.9586 264.473 38.1517 260.533C36.1231 259.359 34.0746 258.173 31.9999 256.973C31.9999 257.546 32.0004 258.017 32.0009 258.425C32.0018 259.144 32.0024 259.663 31.9992 260.182C31.8588 283.452 31.9066 306.722 31.9545 329.992C32.0404 371.81 32.1264 413.629 31.1195 455.446C30.6999 472.873 30.7805 490.312 30.8611 507.751C30.9161 519.642 30.971 531.534 30.8674 543.424C30.8291 547.825 32.6198 549.773 36.0602 551.615C43.8077 555.763 51.4363 560.14 59.0354 564.558C66.827 569.088 74.6022 573.646 82.3774 578.204C92.2921 584.016 102.207 589.829 112.155 595.582C120.492 600.403 128.863 605.163 137.235 609.923C145.134 614.413 153.032 618.904 160.901 623.446C172.189 629.962 183.446 636.532 194.703 643.102C201.858 647.279 209.014 651.455 216.177 655.618C219.801 657.723 223.423 659.832 227.044 661.942C240.015 669.496 252.985 677.051 266.052 684.434C267.794 685.419 269.509 686.461 271.232 687.509C275.576 690.15 279.976 692.824 285.001 694.684C285.001 687.48 284.984 680.332 284.967 673.222C284.929 657.738 284.893 642.437 285.035 627.138C285.233 605.717 285.118 584.295 285.003 562.873C284.81 526.87 284.617 490.866 285.912 454.867C286.326 443.364 286.201 431.842 286.076 420.32C286.027 415.84 285.979 411.359 285.962 406.88C285.961 406.602 285.984 406.32 286.007 406.039C286.105 404.844 286.203 403.651 284.451 402.694C278.168 399.262 271.978 395.658 265.499 391.884C263.048 390.457 260.555 389.005 258 387.529Z"
            fill="white" />
        <path
            d="M145.762 288.881C155.32 293.659 163.681 299.884 173.576 304.027C174.241 305.192 174.788 306.233 175.863 306.799C184.459 311.321 192.313 317.189 201.724 320.957C202.054 330.357 202.061 339.68 201.969 349.001C201.954 350.584 202.825 352.725 201.349 353.65C199.605 354.743 198.07 352.928 196.546 352.04C188.999 347.639 181.437 343.264 173.171 338.469C173.171 352.574 173.171 365.91 173.171 379.836C163.936 374.638 155.339 369.787 146.726 364.963C144.393 363.656 143.927 361.67 143.952 359.134C144.063 347.814 143.936 336.492 144.05 325.172C144.076 322.63 143.507 321.232 141.007 319.888C133.563 315.884 126.502 311.17 119.075 307.131C116.663 305.819 115.891 304.536 115.938 301.909C116.105 292.589 116.017 283.264 116.09 273.477C124.942 276.616 132.676 282.137 140.97 286.638C142.417 287.423 143.926 288.095 145.762 288.881Z"
            fill="white" />
        <path fill-rule="evenodd" clip-rule="evenodd"
            d="M89.4113 256.214C79.0205 251.404 69.6391 245.557 60.1588 239.255C59.2088 236.437 60.9099 235.476 62.5513 234.55C62.7789 234.422 63.0052 234.294 63.2232 234.162C74.9003 227.093 86.721 220.269 98.5416 213.445L98.5431 213.444C104.316 210.111 110.089 206.778 115.846 203.417C143.6 187.21 171.396 171.075 199.198 154.951C214.302 146.191 229.392 137.409 244.483 128.628C265.805 116.219 287.128 103.811 308.487 91.4657C310.069 90.5512 311.655 89.6418 313.24 88.7324L313.246 88.7291C318.881 85.4973 324.518 82.2648 330.013 78.7973C333.65 76.5023 333.645 75.4432 330.033 73.2855C328.256 72.2245 326.451 71.2111 324.646 70.1977L324.645 70.1973L324.645 70.1971C322.239 68.8461 319.832 67.4951 317.493 66.0312C314.181 63.9587 311.165 64.0689 307.708 66.0838C286.499 78.4447 265.28 90.7877 244.061 103.131L244.036 103.145C221.937 116 199.837 128.855 177.75 141.73C161.766 151.047 145.761 160.326 129.756 169.606L129.756 169.606C104.991 183.964 80.2253 198.322 55.5408 212.82C52.9816 214.323 50.3957 215.785 47.8091 217.248L47.8082 217.249L47.8065 217.25C45.3205 218.656 42.8338 220.062 40.3696 221.505C38.3463 222.69 36.2924 223.798 33.4533 223.114C30.1259 222.931 27.6497 221.368 25.2177 219.832L25.2175 219.831C24.5463 219.408 23.8785 218.986 23.1971 218.596C19.2198 216.32 15.2539 214.023 11.2218 211.689L11.2177 211.686L11.211 211.683C8.66011 210.206 6.08273 208.713 3.45923 207.201C5.9356 203.85 9.53587 202.015 13.1332 200.181L13.1335 200.181C14.4185 199.526 15.7031 198.872 16.9359 198.148C35.9644 186.98 55.0669 175.939 74.1695 164.897C86.7914 157.602 99.4133 150.306 112.014 142.974C127.818 133.778 143.594 124.532 159.369 115.286L159.371 115.284C174.784 106.25 190.198 97.2166 205.638 88.2292C223.474 77.8475 241.351 67.5377 259.229 57.2279L259.275 57.2011C267.461 52.4804 275.647 47.7597 283.829 43.032C286.122 41.7068 288.426 40.3981 290.731 39.0895L290.733 39.0882C296.827 35.627 302.922 32.1658 308.82 28.3966C311.468 26.7037 313.338 26.9841 315.565 28.2486C325.802 34.0609 336.03 39.8892 346.228 45.7698C362.508 55.1576 378.77 64.5755 395.022 74.01C402.871 78.5661 410.713 83.1338 418.554 87.7015C428.646 93.5795 438.737 99.4576 448.843 105.311C458.641 110.986 468.456 116.631 478.271 122.276C484.466 125.839 490.66 129.402 496.851 132.972C504.266 137.249 511.678 141.532 519.09 145.816L519.141 145.845L519.169 145.861C528.005 150.968 536.841 156.074 545.683 161.17C561.824 170.471 577.976 179.753 594.133 189.025C598.944 191.785 603.761 194.534 608.578 197.283L608.592 197.292C613.281 199.968 617.969 202.644 622.652 205.33C623.371 205.743 623.968 206.348 623.846 207.673C618.294 209.722 613.393 212.775 608.529 215.805L608.528 215.805C606.612 216.999 604.702 218.188 602.76 219.311C568.806 238.953 534.912 258.7 501.018 278.447L500.894 278.519C486.625 286.832 472.355 295.145 458.082 303.451C411.733 330.419 365.372 357.366 318.999 384.292C318 384.872 316.875 385.236 315.599 385.649L315.599 385.649C315.251 385.761 314.892 385.878 314.522 386.003C304.712 381.74 295.828 376.457 287.159 370.19C286.238 366.97 288.236 365.852 290.139 364.786C290.387 364.648 290.633 364.51 290.87 364.369C304.859 356.053 318.941 347.895 333.022 339.738L333.024 339.737C338.821 336.379 344.618 333.021 350.409 329.652C378.035 313.577 405.669 297.513 433.321 281.482C447.507 273.257 461.677 265.004 475.848 256.751L475.868 256.739C498.518 243.548 521.167 230.356 543.884 217.279C545.937 216.097 547.976 214.893 550.016 213.688L550.022 213.684C552.28 212.35 554.538 211.016 556.815 209.713C560.241 207.752 560.299 206.315 557.022 204.424C554.552 202.997 552.095 201.548 549.638 200.099L549.636 200.098L549.634 200.097C547.647 198.925 545.66 197.753 543.666 196.593C540.66 194.845 537.926 194.851 534.785 196.686C514.263 208.67 493.717 220.613 473.17 232.555L473.153 232.565C463.769 238.02 454.384 243.474 445.002 248.933C410.756 268.858 376.509 288.782 342.225 308.641C332.577 314.23 322.949 319.854 313.322 325.478C297.795 334.549 282.267 343.62 266.653 352.542C264.717 353.648 262.867 354.645 260.204 354.034C254.991 352.846 250.687 350.183 246.424 347.544C244.088 346.099 241.764 344.661 239.309 343.477C237.344 342.529 235.443 341.448 233.478 340.33C232.189 339.597 230.873 338.848 229.493 338.111C227.91 335.181 229.906 334.079 231.649 333.117L231.65 333.116C231.854 333.004 232.054 332.894 232.244 332.782C234.837 331.269 237.429 329.754 240.021 328.24C256.238 318.768 272.455 309.295 288.732 299.924C290.521 298.894 292.295 297.838 294.068 296.782C296.724 295.202 299.38 293.621 302.088 292.126C305.429 290.282 305.429 289.234 302.274 287.407C300.69 286.49 299.098 285.589 297.505 284.688C294.611 283.051 291.717 281.413 288.879 279.68C285.571 277.66 282.533 277.594 279.097 279.642C268.628 285.88 258.08 291.984 247.531 298.088L247.529 298.089C238.937 303.061 230.344 308.033 221.794 313.078C219.342 314.525 216.862 315.922 214.382 317.32L214.38 317.321C211.79 318.781 209.2 320.24 206.643 321.756C205.336 322.53 203.94 323.053 201.998 322.777C198.494 322.798 195.873 321.224 193.291 319.674L193.29 319.674C192.476 319.185 191.666 318.698 190.832 318.265C188.111 316.848 185.489 315.261 182.867 313.675L182.866 313.674C180.681 312.351 178.496 311.029 176.254 309.806C174.311 308.745 172.549 307.551 172.525 304.633C172.607 301.811 174.378 300.779 176.162 299.74C176.27 299.677 176.378 299.614 176.486 299.551C194.462 288.975 212.497 278.5 230.531 268.025L230.535 268.023L230.575 267.999C240.453 262.262 250.331 256.524 260.2 250.77C278.159 240.299 296.139 229.863 314.12 219.428C323.497 213.985 332.874 208.543 342.248 203.096C348.412 199.513 354.577 195.933 360.743 192.352L360.896 192.262L360.907 192.256C387.22 176.973 413.534 161.689 439.788 146.301C440.386 145.951 441.094 145.647 441.813 145.338L441.814 145.338C443.889 144.447 446.061 143.515 445.97 141.303C445.896 139.502 443.798 138.568 441.795 137.678L441.795 137.678C441.108 137.372 440.433 137.072 439.854 136.743C436.668 134.933 433.482 133.118 430.382 131.177C427.331 129.267 424.605 129.445 421.523 131.234C411.188 137.236 400.86 143.249 390.532 149.263C378.705 156.15 366.878 163.036 355.04 169.904C335.864 181.029 316.7 192.177 297.537 203.324L297.523 203.332C276.11 215.787 254.698 228.243 233.268 240.667C208.495 255.03 183.724 269.395 159.066 283.953C156.34 285.562 153.521 286.969 150.597 288.429C149.214 289.12 147.807 289.823 146.375 290.564C144.664 291.182 143.352 290.845 142.217 290.138C139.254 288.294 136.196 286.603 133.126 284.906L133.125 284.905C127.169 281.612 121.168 278.294 115.72 273.779C114.316 270.092 116.672 268.687 119.004 267.297L119.036 267.278C130.021 260.726 141.094 254.323 152.167 247.92C157.092 245.072 162.018 242.223 166.936 239.362C184.506 229.139 202.082 218.927 219.659 208.715L219.724 208.677C225.735 205.185 231.746 201.692 237.757 198.199C243.582 194.814 249.409 191.433 255.236 188.052C271.01 178.901 286.783 169.75 302.509 160.518C307.932 157.336 307.929 156.64 302.714 153.418C301.298 152.542 299.833 151.743 298.369 150.944L298.368 150.944C296.172 149.746 293.978 148.549 291.952 147.097C288.31 144.486 285.085 144.821 281.365 147.029C267.479 155.273 253.51 163.378 239.514 171.435C223.784 180.49 208.107 189.636 192.429 198.782C174.743 209.1 157.057 219.417 139.295 229.605C133.338 233.023 127.419 236.504 121.499 239.986C112.637 245.199 103.775 250.411 94.7871 255.406C94.5944 255.513 94.4029 255.626 94.2111 255.738C92.8232 256.554 91.4206 257.379 89.4113 256.214ZM348.593 236.642C352.132 234.554 355.652 232.474 359.16 230.402C370.761 223.548 382.218 216.779 393.711 210.073C406.087 202.852 418.483 195.668 430.879 188.483L430.891 188.477C438.144 184.273 445.396 180.07 452.645 175.859L453.36 175.444L453.37 175.438C462.032 170.406 470.695 165.374 479.311 160.265C481.525 158.952 483.465 158.954 485.687 160.258C489.22 162.331 492.779 164.358 496.338 166.386C499.733 168.32 503.128 170.253 506.499 172.226C508.874 173.616 509.361 174.634 506.268 176.414C491.015 185.188 475.823 194.069 460.631 202.95C451.68 208.183 442.728 213.417 433.763 218.628C417.372 228.157 400.95 237.631 384.528 247.105L384.516 247.112C379.701 249.89 374.885 252.669 370.07 255.448C363.8 259.068 357.52 262.672 351.241 266.276L351.05 266.386C348.186 268.029 345.322 269.673 342.46 271.318C342.225 271.453 342.01 271.617 341.798 271.779L341.798 271.779C341.075 272.332 340.39 272.856 339.098 272.079C332.967 268.388 326.778 264.795 320.335 261.054L320.315 261.042C318.012 259.705 315.676 258.349 313.3 256.962L313.313 256.955C325.404 250.002 336.843 243.424 348.593 236.642ZM375.104 121.315C378.928 119.133 382.771 116.94 386.634 114.727C387.951 113.57 389.429 112.77 390.878 111.985C392.682 111.008 394.442 110.055 395.791 108.466C393.634 107.214 391.482 105.975 389.337 104.739C383.641 101.458 377.992 98.2045 372.424 94.818C370.373 93.5702 368.893 93.3301 366.762 94.5983C360.524 98.311 354.237 101.94 347.95 105.57C344.761 107.41 341.572 109.251 338.39 111.103C333.247 114.095 328.116 117.106 322.922 120.155C320.596 121.52 318.257 122.892 315.898 124.274C318.216 125.593 320.508 126.885 322.776 128.164C328.995 131.67 335.038 135.077 340.966 138.673C342.745 139.753 343.405 139.589 345.097 138.596C355.011 132.78 364.996 127.083 375.104 121.315Z"
            fill="white" />
    </g>
    <defs>
        <clipPath id="clip0_10_4">
            <rect width="624" height="761" fill="white" />
        </clipPath>
    </defs>
</svg>