<svg width="654" height="260" viewBox="0 0 654 260" fill="none" xmlns="http://www.w3.org/2000/svg">
<g clip-path="url(#clip0_88_318)">
<path d="M280.73 132.531L265 73.9458H276.476L288.816 123.876H285.833L298.727 73.9458H309.811L322.624 123.876H319.641L331.98 73.9458H343.456L327.726 132.531H315.468L302.492 83.9383H305.948L292.972 132.531H280.714H280.73Z" fill="white"/>
<path d="M350.01 132.531V73.9458H388.936V83.384H360.703V98.3972H387.355V107.835H360.703V123.093H388.936V132.531H350.01Z" fill="white"/>
<path d="M396.793 132.531V73.9458H421.489C425.369 73.9458 428.678 74.6141 431.433 75.9508C434.188 77.2875 436.307 79.1784 437.806 81.6072C439.306 84.0524 440.04 86.9865 440.04 90.4586C440.04 93.132 439.322 95.6423 437.872 97.9734C436.437 100.304 434.139 102.228 430.993 103.76V98.8047C433.878 99.9132 436.16 101.266 437.839 102.896C439.518 104.526 440.692 106.336 441.376 108.324C442.061 110.313 442.403 112.416 442.403 114.617C442.403 120.224 440.561 124.609 436.861 127.788C433.161 130.966 428.042 132.548 421.489 132.548H396.793V132.531ZM407.487 96.6693H422.027C424.228 96.6693 425.988 96.0335 427.292 94.7458C428.596 93.458 429.265 91.7953 429.265 89.7577C429.265 87.7201 428.613 86.09 427.292 84.8837C425.988 83.6774 424.228 83.0743 422.027 83.0743H407.487V96.6693ZM407.487 123.093H422.581C425.353 123.093 427.569 122.327 429.232 120.778C430.879 119.23 431.71 117.176 431.71 114.6C431.71 112.025 430.879 109.955 429.232 108.39C427.586 106.825 425.369 106.026 422.581 106.026H407.487V123.093Z" fill="white"/>
<path d="M451.94 132.531V73.9458H462.633V132.531H451.94Z" fill="white"/>
<path d="M500.539 133.476C496.235 133.476 492.225 132.71 488.509 131.194C484.792 129.678 481.532 127.559 478.761 124.82C475.989 122.098 473.821 118.887 472.273 115.187C470.724 111.486 469.958 107.493 469.958 103.189C469.958 98.8857 470.724 94.8267 472.24 91.159C473.756 87.4913 475.908 84.2963 478.695 81.5741C481.467 78.8518 484.727 76.7327 488.443 75.2493C492.16 73.7497 496.203 73.0161 500.555 73.0161C504.907 73.0161 508.934 73.7823 512.667 75.2982C516.383 76.8142 519.643 78.9333 522.414 81.623C525.186 84.3289 527.354 87.5076 528.902 91.1753C530.451 94.843 531.217 98.8531 531.217 103.205C531.217 107.558 530.435 111.503 528.853 115.203C527.288 118.903 525.104 122.114 522.333 124.837C519.562 127.559 516.318 129.678 512.618 131.21C508.917 132.726 504.891 133.493 500.555 133.493L500.539 133.476ZM500.539 123.728C503.424 123.728 506.065 123.223 508.477 122.196C510.89 121.169 512.993 119.751 514.802 117.909C516.611 116.067 517.997 113.899 518.975 111.388C519.937 108.878 520.426 106.156 520.426 103.205C520.426 100.255 519.937 97.5653 518.975 95.0713C517.997 92.5772 516.611 90.4092 514.802 88.5509C512.993 86.6926 510.89 85.2581 508.477 84.2638C506.065 83.2694 503.424 82.7641 500.539 82.7641C497.653 82.7641 495.094 83.2694 492.682 84.2638C490.269 85.2581 488.166 86.6926 486.357 88.5509C484.547 90.4092 483.146 92.5935 482.151 95.0713C481.157 97.5653 480.652 100.271 480.652 103.205C480.652 106.14 481.157 108.862 482.151 111.388C483.146 113.899 484.547 116.083 486.357 117.909C488.166 119.751 490.269 121.169 492.682 122.196C495.094 123.223 497.719 123.728 500.539 123.728Z" fill="white"/>
<path d="M560.491 133.476C556.775 133.476 553.319 132.792 550.156 131.439C546.978 130.07 544.255 128.179 541.973 125.733C539.691 123.288 538.028 120.452 536.985 117.208L545.869 113.361C547.287 116.719 549.325 119.344 551.998 121.267C554.672 123.174 557.687 124.136 561.045 124.136C562.936 124.136 564.566 123.843 565.952 123.239C567.338 122.636 568.413 121.805 569.18 120.762C569.946 119.718 570.321 118.463 570.321 116.98C570.321 115.252 569.815 113.817 568.788 112.693C567.761 111.568 566.229 110.688 564.191 110.052L552.944 106.433C548.38 105.015 544.956 102.896 542.642 100.06C540.327 97.2232 539.186 93.8978 539.186 90.0671C539.186 86.7091 540.017 83.7586 541.664 81.1831C543.31 78.6075 545.625 76.6025 548.591 75.168C551.558 73.7335 554.949 73 558.78 73C562.284 73 565.512 73.6194 568.446 74.842C571.38 76.0809 573.907 77.7762 576.026 79.9605C578.145 82.1285 579.726 84.6878 580.786 87.6219L571.983 91.5504C570.826 88.6163 569.098 86.3504 566.8 84.753C564.485 83.1555 561.812 82.3567 558.78 82.3567C557.003 82.3567 555.422 82.6664 554.069 83.2533C552.699 83.8564 551.64 84.6878 550.89 85.7636C550.124 86.8395 549.749 88.1109 549.749 89.578C549.749 91.2081 550.27 92.6263 551.314 93.8652C552.357 95.104 553.954 96.0495 556.106 96.7341L566.881 100.108C571.543 101.624 575.048 103.727 577.379 106.401C579.71 109.074 580.884 112.383 580.884 116.312C580.884 119.67 580.02 122.636 578.292 125.196C576.564 127.771 574.184 129.776 571.136 131.243C568.087 132.71 564.55 133.444 560.524 133.444L560.491 133.476Z" fill="white"/>
<path d="M590.454 132.531V73.9458H601.148V132.531H590.454Z" fill="white"/>
<path d="M633.308 133.476C629.592 133.476 626.136 132.792 622.974 131.439C619.795 130.07 617.073 128.179 614.791 125.733C612.508 123.288 610.846 120.452 609.802 117.208L618.687 113.361C620.105 116.719 622.142 119.344 624.816 121.267C627.489 123.174 630.505 124.136 633.863 124.136C635.754 124.136 637.384 123.843 638.769 123.239C640.155 122.636 641.231 121.805 641.997 120.762C642.763 119.718 643.138 118.463 643.138 116.98C643.138 115.252 642.633 113.817 641.606 112.693C640.579 111.568 639.046 110.688 637.009 110.052L625.761 106.433C621.197 105.015 617.774 102.896 615.459 100.06C613.144 97.2232 612.003 93.8978 612.003 90.0671C612.003 86.7091 612.835 83.7586 614.481 81.1831C616.127 78.6075 618.442 76.6025 621.409 75.168C624.376 73.7335 627.766 73 631.597 73C635.102 73 638.329 73.6194 641.263 74.842C644.197 76.0809 646.724 77.7762 648.843 79.9605C650.962 82.1285 652.544 84.6878 653.603 87.6219L644.801 91.5504C643.643 88.6163 641.915 86.3504 639.617 84.753C637.302 83.1555 634.629 82.3567 631.597 82.3567C629.82 82.3567 628.239 82.6664 626.886 83.2533C625.517 83.8564 624.457 84.6878 623.707 85.7636C622.941 86.8395 622.566 88.1109 622.566 89.578C622.566 91.2081 623.088 92.6263 624.131 93.8652C625.174 95.104 626.772 96.0495 628.923 96.7341L639.698 100.108C644.36 101.624 647.865 103.727 650.196 106.401C652.527 109.074 653.701 112.383 653.701 116.312C653.701 119.67 652.837 122.636 651.109 125.196C649.381 127.771 647.001 129.776 643.953 131.243C640.905 132.71 637.367 133.444 633.341 133.444L633.308 133.476Z" fill="white"/>
<path d="M282.753 186.487C280.878 186.487 279.183 186.128 277.651 185.427C276.118 184.71 274.831 183.764 273.771 182.558C272.711 181.368 271.962 180.031 271.521 178.581L274.358 177.521C275.042 179.526 276.102 181.042 277.553 182.085C279.004 183.129 280.732 183.65 282.72 183.65C283.992 183.65 285.1 183.455 286.062 183.031C287.024 182.623 287.774 182.053 288.295 181.319C288.817 180.586 289.078 179.722 289.078 178.76C289.078 177.309 288.686 176.184 287.888 175.402C287.105 174.62 285.964 174 284.497 173.593L279.199 172.011C277.113 171.408 275.515 170.398 274.407 168.963C273.298 167.529 272.728 165.915 272.728 164.105C272.728 162.557 273.103 161.171 273.869 159.981C274.635 158.791 275.678 157.846 277.015 157.161C278.352 156.477 279.851 156.134 281.53 156.134C283.209 156.134 284.888 156.46 286.29 157.096C287.692 157.748 288.898 158.596 289.86 159.639C290.838 160.699 291.539 161.872 291.947 163.16L289.175 164.268C288.54 162.524 287.562 161.22 286.225 160.324C284.888 159.427 283.34 158.987 281.547 158.987C280.422 158.987 279.427 159.183 278.563 159.574C277.7 159.965 277.048 160.536 276.575 161.269C276.102 162.003 275.858 162.883 275.858 163.877C275.858 165.083 276.232 166.176 276.999 167.137C277.765 168.099 278.938 168.816 280.52 169.289L285.182 170.675C287.496 171.359 289.257 172.354 290.431 173.641C291.621 174.929 292.207 176.559 292.207 178.499C292.207 180.08 291.8 181.466 291.001 182.672C290.202 183.878 289.078 184.808 287.643 185.492C286.209 186.177 284.562 186.519 282.688 186.519L282.753 186.487Z" fill="white"/>
<path d="M320.246 186.013V172.353L309.944 156.59H313.465L322.463 170.299H321.192L330.157 156.59H333.678L323.409 172.353V186.013H320.246Z" fill="white"/>
<path d="M362.122 186.487C360.248 186.487 358.552 186.128 357.02 185.427C355.488 184.71 354.2 183.764 353.141 182.558C352.081 181.368 351.331 180.031 350.891 178.581L353.727 177.521C354.412 179.526 355.472 181.042 356.922 182.085C358.373 183.129 360.101 183.65 362.09 183.65C363.361 183.65 364.47 183.455 365.431 183.031C366.393 182.623 367.143 182.053 367.665 181.319C368.186 180.586 368.447 179.722 368.447 178.76C368.447 177.309 368.056 176.184 367.257 175.402C366.475 174.62 365.334 174 363.867 173.593L358.569 172.011C356.482 171.408 354.885 170.398 353.776 168.963C352.668 167.529 352.097 165.915 352.097 164.105C352.097 162.557 352.472 161.171 353.238 159.981C354.004 158.791 355.048 157.846 356.384 157.161C357.721 156.477 359.221 156.134 360.9 156.134C362.579 156.134 364.258 156.46 365.66 157.096C367.061 157.748 368.268 158.596 369.23 159.639C370.208 160.699 370.909 161.872 371.316 163.16L368.545 164.268C367.909 162.524 366.931 161.22 365.594 160.324C364.258 159.427 362.709 158.987 360.916 158.987C359.791 158.987 358.797 159.183 357.933 159.574C357.069 159.965 356.417 160.536 355.944 161.269C355.472 162.003 355.227 162.883 355.227 163.877C355.227 165.083 355.602 166.176 356.368 167.137C357.134 168.099 358.308 168.816 359.889 169.289L364.551 170.675C366.866 171.359 368.626 172.354 369.8 173.641C370.99 174.929 371.577 176.559 371.577 178.499C371.577 180.08 371.169 181.466 370.371 182.672C369.572 183.878 368.447 184.808 367.013 185.492C365.578 186.177 363.932 186.519 362.057 186.519L362.122 186.487Z" fill="white"/>
<path d="M398.62 186.014V159.541H390.486V156.574H409.835V159.541H401.782V186.014H398.62Z" fill="white"/>
<path d="M429.543 186.013V156.59H448.501V159.557H432.706V169.794H447.719V172.761H432.706V183.063H448.501V186.03H429.543V186.013Z" fill="white"/>
<path d="M469.512 186.013V156.59H472.283L483.352 172.63H481.819L492.839 156.59H495.61V186.013H492.448V160.845L493.475 161.236L482.651 176.918H482.488L471.697 161.236L472.691 160.845V186.013H469.528H469.512Z" fill="white"/>
<path d="M528.261 186.487C526.387 186.487 524.692 186.128 523.159 185.427C521.627 184.71 520.339 183.764 519.28 182.558C518.22 181.368 517.47 180.031 517.03 178.581L519.866 177.521C520.551 179.526 521.611 181.042 523.061 182.085C524.512 183.129 526.24 183.65 528.229 183.65C529.5 183.65 530.609 183.455 531.571 183.031C532.532 182.623 533.282 182.053 533.804 181.319C534.325 180.586 534.586 179.722 534.586 178.76C534.586 177.309 534.195 176.184 533.396 175.402C532.614 174.62 531.473 174 530.006 173.593L524.708 172.011C522.621 171.408 521.024 170.398 519.915 168.963C518.807 167.529 518.236 165.915 518.236 164.105C518.236 162.557 518.611 161.171 519.377 159.981C520.144 158.791 521.187 157.846 522.524 157.161C523.86 156.477 525.36 156.134 527.039 156.134C528.718 156.134 530.397 156.46 531.799 157.096C533.201 157.748 534.407 158.596 535.369 159.639C536.347 160.699 537.048 161.872 537.455 163.16L534.684 164.268C534.048 162.524 533.07 161.22 531.734 160.324C530.397 159.427 528.848 158.987 527.055 158.987C525.93 158.987 524.936 159.183 524.072 159.574C523.208 159.965 522.556 160.536 522.083 161.269C521.611 162.003 521.366 162.883 521.366 163.877C521.366 165.083 521.741 166.176 522.507 167.137C523.273 168.099 524.447 168.816 526.028 169.289L530.69 170.675C533.005 171.359 534.766 172.354 535.939 173.641C537.129 174.929 537.716 176.559 537.716 178.499C537.716 180.08 537.308 181.466 536.51 182.672C535.711 183.878 534.586 184.808 533.152 185.492C531.717 186.177 530.071 186.519 528.196 186.519L528.261 186.487Z" fill="white"/>
<path d="M108.328 127.405L83.517 113.082L82.3917 112.433L82.1217 206.636L71.8857 200.722L72.1558 106.519L61.9198 100.604L51.6839 94.6983L41.448 88.7836L41.1779 182.987L30.9419 177.072L31.212 82.8689L29.3035 81.7616L4.49232 67.4385L0.504176 65.1338L0.162077 182.888L0.0450436 182.816L0.0090332 194.582L112.685 259.635V259.608L112.739 259.635L113.109 130.159L108.328 127.396V127.405ZM11.6674 189.523L10.407 188.793L10.7041 82.8149L20.9401 88.7296L20.67 182.96L30.9059 188.874V188.847L41.1419 194.753V194.78L51.3778 200.695L51.6479 106.465L61.8838 112.37L61.6138 206.6L71.8497 212.515V212.488L82.0856 218.394V218.421L92.3216 224.336L92.5917 130.105L102.828 136.02L102.531 241.999L101.099 241.17L11.6674 189.523Z" fill="#F66135"/>
<path d="M224.984 100.513L225.101 65.1782L123.408 123.65L123.273 124.253L113.091 130.168L112.857 212.677L155.916 187.658V187.676L194.375 165.323L194.339 177.098L112.848 224.452L112.812 236.218L155.844 211.218L204.467 182.959L204.566 147.642L133.229 189.099V189.117L123.047 195.032L123.219 137.604L123.237 137.586V136.137L214.946 82.8413L214.91 94.6167L133.364 142.006L133.328 153.782L133.355 153.764L133.328 165.539L133.301 165.557L133.265 177.323L214.811 129.934L214.64 188.802L112.785 248.003L112.749 259.688L224.714 194.617L224.948 112.298L196.329 128.926L143.501 159.624L143.537 147.849L224.984 100.513Z" fill="#F66135"/>
<path d="M83.0128 88.2883L87.8922 91.1061L93.2668 94.212L103.521 100.127L113.775 106.041L184.202 65.1156L180.358 62.901L153.422 47.3535L143.222 53.2862L143.249 53.3042L83.0218 88.3063L83.0128 88.2883ZM112.82 94.7161L102.566 88.8014L144.843 64.2334L153.485 59.2099L163.712 65.1156L155.07 70.1391H155.088L112.811 94.7161H112.82Z" fill="#F66135"/>
<path d="M112.343 0L15.1063 56.5093L6.34677 61.5957L0.432068 65.1787L6.34677 68.5367L10.605 70.9944L24.7931 79.1868L111.641 129.331L113.099 130.177L225.092 65.1787L112.343 0ZM111.785 119.068L111.353 118.816L28.133 70.7694L19.6166 65.8539L19.5356 65.8179L28.142 60.8215L112.424 11.8294H112.451H112.469L204.692 65.0707V65.0887L111.794 119.068H111.785Z" fill="#F66135"/>
<path d="M62.5139 76.4593L65.0076 77.8997L72.7679 82.383L143.195 41.4572L112.46 23.7041L42.015 64.6209L52.251 70.5356L62.5139 76.4593ZM112.478 35.5335L121.454 40.719L122.705 41.4392L113.198 46.9578L113.234 46.9758L71.8226 71.0397L61.5596 65.116L112.478 35.5245V35.5335Z" fill="#F66135"/>
<path d="M9.66876 82.3378L110.174 140.305L116.953 140.594L114.639 124.875L59.5611 90.7012L17.1679 68.4918L0.495117 65.1519L3.8981 79.0248L9.66876 82.3378Z" fill="#F66135"/>
<path d="M111.785 119.068L104.259 131.222L106.852 168.997L108.589 255.521L112.748 259.689L115.8 257.825L123.291 251.19L123.236 136.137L111.785 119.068Z" fill="#F66135"/>
</g>
<defs>
<clipPath id="clip0_88_318">
<rect width="654" height="260" fill="white"/>
</clipPath>
</defs>
</svg>
