<svg width="226" height="260" viewBox="0 0 226 260" fill="none" xmlns="http://www.w3.org/2000/svg">
<path d="M108.319 127.405L83.508 113.082L82.3827 112.433L82.1127 206.636L71.8767 200.722L72.1468 106.519L61.9108 100.604L51.6749 94.6983L41.439 88.7836L41.1689 182.987L30.9329 177.072L31.203 82.8689L29.2945 81.7616L4.48329 67.4385L0.495143 65.1338L0.153044 182.888L0.0360104 182.816L0 194.582L112.676 259.635V259.608L112.73 259.635L113.1 130.159L108.319 127.396V127.405ZM11.6584 189.523L10.398 188.793L10.6951 82.8149L20.9311 88.7296L20.661 182.96L30.8969 188.874V188.847L41.1329 194.753V194.78L51.3688 200.695L51.6389 106.465L61.8748 112.37L61.6048 206.6L71.8407 212.515V212.488L82.0766 218.394V218.421L92.3126 224.336L92.5827 130.105L102.819 136.02L102.522 241.999L101.09 241.17L11.6584 189.523Z" fill="white"/>
<path d="M224.975 100.513L225.092 65.1782L123.399 123.65L123.264 124.253L113.082 130.168L112.848 212.677L155.907 187.658V187.676L194.366 165.323L194.33 177.098L112.839 224.452L112.803 236.218L155.835 211.218L204.458 182.959L204.557 147.642L133.22 189.099V189.117L123.038 195.032L123.21 137.604L123.228 137.586V136.137L214.937 82.8413L214.901 94.6167L133.355 142.006L133.319 153.782L133.346 153.764L133.319 165.539L133.292 165.557L133.256 177.323L214.802 129.934L214.631 188.802L112.776 248.003L112.74 259.688L224.705 194.617L224.939 112.298L196.32 128.926L143.492 159.624L143.528 147.849L224.975 100.513Z" fill="white"/>
<path d="M83.0038 88.2883L87.8832 91.1061L93.2578 94.212L103.512 100.127L113.766 106.041L184.193 65.1156L180.349 62.901L153.413 47.3535L143.213 53.2862L143.24 53.3042L83.0128 88.3063L83.0038 88.2883ZM112.811 94.7161L102.557 88.8014L144.834 64.2334L153.476 59.2099L163.703 65.1156L155.061 70.1391H155.079L112.802 94.7161H112.811Z" fill="white"/>
<path d="M112.334 0L15.0973 56.5093L6.33774 61.5957L0.423035 65.1787L6.33774 68.5367L10.596 70.9944L24.7841 79.1868L111.632 129.331L113.09 130.177L225.083 65.1787L112.334 0ZM111.776 119.068L111.344 118.816L28.124 70.7694L19.6076 65.8539L19.5266 65.8179L28.133 60.8215L112.415 11.8294H112.442H112.46L204.683 65.0707V65.0887L111.785 119.068H111.776Z" fill="white"/>
<path d="M62.5049 76.4593L64.9986 77.8997L72.7589 82.383L143.186 41.4572L112.451 23.7041L42.006 64.6209L52.242 70.5356L62.5049 76.4593ZM112.469 35.5335L121.445 40.719L122.696 41.4392L113.189 46.9578L113.225 46.9758L71.8136 71.0397L61.5506 65.116L112.469 35.5245V35.5335Z" fill="white"/>
<path d="M9.65973 82.3378L110.165 140.305L116.944 140.594L114.63 124.875L59.5521 90.7012L17.1589 68.4918L0.486084 65.1519L3.88907 79.0248L9.65973 82.3378Z" fill="white"/>
<path d="M111.776 119.068L104.25 131.222L106.843 168.997L108.58 255.521L112.739 259.689L115.791 257.825L123.282 251.19L123.227 136.137L111.776 119.068Z" fill="white"/>
</svg>
